# xmcd
#
# Track frame offsets:
#	150
#	5630
#	16285
#	27373
#	33678
#	40468
#	50531
#	66442
#	74634
#	82756
#	94751
#	101600
#	107415
#	118114
#	127904
#	149360
#	160105
#	172642
#	189837
#	200183
#	213028
#	232075
#	240570
#	249473
#	262995
#	273235
#	284012
#	294379
#	302407
#	312254
#	319920
#	327989
#
# Disc length: 4522 seconds
#
# Revision: 0
# Processed by: cddbd v1.5.2PL0 Copyright (c) Steve Scherf et al.
# Submitted via: audiograbber 1.81.03
#
DISCID=ca11a820
DTITLE=NÖ Bauernbund - 100 Jahre
DYEAR=1900
DGENRE=
TTITLE0=Albert und seine Musikanten - Im Fruahjohr, wonns grean wird
TTITLE1=Sommereiner Viergesang - Wonn i morgens fruah aufsteh
TTITLE2=Kirchberger Tanzlmusi - Im Wald drausd is schön
TTITLE3=D'Schlofhaumbuam - Die lusti' Bäurin
TTITLE4=Wald 3/4 G'sang - Ös Gasbeid'l Bau'nbuam
TTITLE5=Bäuerinnensinggruppe Hollabrunn - I schwing hin
TTITLE6=Sommereiner Viergesang, Familienmusik Zehetner - Wos braucht ma auf an 
TTITLE6=Bauerndorf
TTITLE7=Familienmusik Zehetner - Bauernmenuett
TTITLE8=Sommereiner Viergesang - Ihr Herren schweigt ein wenig still
TTITLE9=Stubenmusik Berger - Aufzugsmarsch aus Niederösterreich
TTITLE10=Bäuerinnensinggruppe Hollabrunn - Im Märzen der Bauer
TTITLE11=Albert und seine Musikanten - O Diandle tiaf drunt im Thol
TTITLE12=Sommereiner Viergesang, Familienmusik Zehetner - I bin da Kloa Sunnber
TTITLE12=ger Veitl
TTITLE13=D'Schlofhaumbuam - Auf'm Heubodn
TTITLE14=Stifta Geigenmusi - Gurktaler Walzer
TTITLE15=Stubenmusik Berger - Mei' Voter, des is a kloans Bäuerle
TTITLE16=Kirchberger Tanzlmusi - Brautlied und Hochzeitsweisen
TTITLE17=Norbert Huaer, Kirchberger Tanzlmusi - Gstanzln
TTITLE18=Kirchberger Tanzlmusi - Bauernhochzeit
TTITLE19=D'Schlofhaumbuam - Schworze Kuahlan, gescheckati Kolma
TTITLE20=Wald 3/4 G'sang - Die Bauern von St. Pölten
TTITLE21=Familienmusik Zehetner - Bauernmadl, Bauernmadl
TTITLE22=D'Schlofhaumbuam - Der Vierermohder
TTITLE23=Wald 3/4 G'sang - Koa Bauer mog i a neama bleibn
TTITLE24=Stifta Geigenmusi - Yspertaler Franzee
TTITLE25=Stifta Geigenmusi - I geh nimmer außi
TTITLE26=Kirchberger Tanzlmusi - Kirchberger Jubiläumspolka
TTITLE27=Bäuerinnensinggruppe Hollabrunn - D' Bäurin hot d' Kotz verlorn
TTITLE28=Stifta Geigenmusi - Saupolka
TTITLE29=Lampelsberg Bläser - Abendstimmung
TTITLE30=D'Schlofhaumbuam - Da Küahmelcher
TTITLE31=Norbert Hauer, Kirchberger Tanzlmusi - Gstanzln
EXTD=
EXTT0=
EXTT1=
EXTT2=
EXTT3=
EXTT4=
EXTT5=
EXTT6=
EXTT7=
EXTT8=
EXTT9=
EXTT10=
EXTT11=Christian Dollfuß, thomas Zimola
EXTT12=
EXTT13=
EXTT14=
EXTT15=
EXTT16=
EXTT17=
EXTT18=
EXTT19=
EXTT20=
EXTT21=
EXTT22=
EXTT23=
EXTT24=
EXTT25=
EXTT26=
EXTT27=
EXTT28=
EXTT29=
EXTT30=
EXTT31=live
PLAYORDER=
